REM DIRINDEX 1\2,1\3,1\4,1\5,1\6
REM DIRNAME cjc129,folder01,folder02,folder03,folder04,folder05
TITLE ""
FILE "DISC2Track34.mp3" MP3
  TRACK 01 AUDIO
    TITLE "0:"
    INDEX 01 00:00:00
  TRACK 02 AUDIO
    TITLE "3:cjc129_2005"
    INDEX 01 00:00:07
  TRACK 03 AUDIO
    TITLE "0:"
    INDEX 01 00:01:50
  TRACK 04 AUDIO
    TITLE "5:cjc129_2006"
    INDEX 01 00:02:04
  TRACK 05 AUDIO
    TITLE "0:"
    INDEX 01 00:04:64
  TRACK 06 AUDIO
    TITLE "4:cjc129_2007"
    INDEX 01 00:05:54
  TRACK 07 AUDIO
    TITLE "0:"
    INDEX 01 00:07:21
  TRACK 08 AUDIO
    TITLE "6:cjc129_2008"
    INDEX 01 00:07:56
  TRACK 09 AUDIO
    TITLE "0:"
    INDEX 01 00:11:62
  TRACK 10 AUDIO
    TITLE "3:cjc129_2009"
    INDEX 01 00:13:37
  TRACK 11 AUDIO
    TITLE "0:"
    INDEX 01 00:15:05
  TRACK 12 AUDIO
    TITLE "5:cjc129_2010"
    INDEX 01 00:15:36
  TRACK 13 AUDIO
    TITLE "0:"
    INDEX 01 00:16:63
  TRACK 14 AUDIO
    TITLE "4:cjc129_2011"
    INDEX 01 00:17:55
  TRACK 15 AUDIO
    TITLE "0:"
    INDEX 01 00:19:22
  TRACK 16 AUDIO
    TITLE "6:cjc129_2012"
    INDEX 01 00:19:52
  TRACK 17 AUDIO
    TITLE "0:"
    INDEX 01 00:24:47
  TRACK 18 AUDIO
    TITLE "3:cjc129_2013"
    INDEX 01 00:26:22
  TRACK 19 AUDIO
    TITLE "0:"
    INDEX 01 00:27:73
  TRACK 20 AUDIO
    TITLE "5:cjc129_2014"
    INDEX 01 00:28:31
  TRACK 21 AUDIO
    TITLE "0:"
    INDEX 01 00:31:18
  TRACK 22 AUDIO
    TITLE "4:cjc129_2015"
    INDEX 01 00:32:09
  TRACK 23 AUDIO
    TITLE "0:"
    INDEX 01 00:33:60
  TRACK 24 AUDIO
    TITLE "6:cjc129_2016"
    INDEX 01 00:34:16
  TRACK 25 AUDIO
    TITLE "0:"
    INDEX 01 00:39:64
  TRACK 26 AUDIO
    TITLE "3:cjc129_2017"
    INDEX 01 00:41:42
  TRACK 27 AUDIO
    TITLE "0:"
    INDEX 01 00:43:44
  TRACK 28 AUDIO
    TITLE "5:cjc129_2018"
    INDEX 01 00:44:03
  TRACK 29 AUDIO
    TITLE "0:"
    INDEX 01 00:50:70
  TRACK 30 AUDIO
    TITLE "4:cjc129_2019"
    INDEX 01 00:51:62
  TRACK 31 AUDIO
    TITLE "0:"
    INDEX 01 00:53:64
  TRACK 32 AUDIO
    TITLE "6:cjc129_2020"
    INDEX 01 00:54:21
  TRACK 33 AUDIO
    TITLE "0:"
    INDEX 01 00:59:04
  TRACK 34 AUDIO
    TITLE "3:cjc129_2021"
    INDEX 01 01:00:53
  TRACK 35 AUDIO
    TITLE "0:"
    INDEX 01 01:02:38
  TRACK 36 AUDIO
    TITLE "5:cjc129_2022"
    INDEX 01 01:02:69
  TRACK 37 AUDIO
    TITLE "0:"
    INDEX 01 01:04:35
  TRACK 38 AUDIO
    TITLE "4:cjc129_2023"
    INDEX 01 01:05:24
  TRACK 39 AUDIO
    TITLE "0:"
    INDEX 01 01:07:08
  TRACK 40 AUDIO
    TITLE "6:cjc129_2024"
    INDEX 01 01:07:39
  TRACK 41 AUDIO
    TITLE "0:"
    INDEX 01 01:12:15
  TRACK 42 AUDIO
    TITLE "3:cjc129_2025"
    INDEX 01 01:13:69
  TRACK 43 AUDIO
    TITLE "0:"
    INDEX 01 01:15:27
  TRACK 44 AUDIO
    TITLE "5:cjc129_2026"
    INDEX 01 01:15:60
  TRACK 45 AUDIO
    TITLE "0:"
    INDEX 01 01:18:19
  TRACK 46 AUDIO
    TITLE "4:cjc129_2027"
    INDEX 01 01:19:07
  TRACK 47 AUDIO
    TITLE "0:"
    INDEX 01 01:20:40
  TRACK 48 AUDIO
    TITLE "6:cjc129_2028"
    INDEX 01 01:20:73
  TRACK 49 AUDIO
    TITLE "0:"
    INDEX 01 01:25:47
  TRACK 50 AUDIO
    TITLE "3:cjc129_2029"
    INDEX 01 01:27:24
  TRACK 51 AUDIO
    TITLE "0:"
    INDEX 01 01:31:00
  TRACK 52 AUDIO
    TITLE "5:cjc129_2030"
    INDEX 01 01:31:32
  TRACK 53 AUDIO
    TITLE "0:"
    INDEX 01 01:32:43
  TRACK 54 AUDIO
    TITLE "4:cjc129_2031"
    INDEX 01 01:33:33
  TRACK 55 AUDIO
    TITLE "0:"
    INDEX 01 01:37:07
  TRACK 56 AUDIO
    TITLE "6:cjc129_2032"
    INDEX 01 01:37:40
  TRACK 57 AUDIO
    TITLE "0:"
    INDEX 01 01:42:02
  TRACK 58 AUDIO
    TITLE "3:cjc129_2033"
    INDEX 01 01:43:52
  TRACK 59 AUDIO
    TITLE "0:"
    INDEX 01 01:44:70
  TRACK 60 AUDIO
    TITLE "5:cjc129_2034"
    INDEX 01 01:45:24
  TRACK 61 AUDIO
    TITLE "0:"
    INDEX 01 01:47:42
  TRACK 62 AUDIO
    TITLE "4:cjc129_2035"
    INDEX 01 01:48:30
  TRACK 63 AUDIO
    TITLE "0:"
    INDEX 01 01:49:47
  TRACK 64 AUDIO
    TITLE "6:cjc129_2036"
    INDEX 01 01:50:04
  TRACK 65 AUDIO
    TITLE "0:"
    INDEX 01 01:54:07
  TRACK 66 AUDIO
    TITLE "3:cjc129_2037"
    INDEX 01 01:55:58
  TRACK 67 AUDIO
    TITLE "0:"
    INDEX 01 01:57:31
  TRACK 68 AUDIO
    TITLE "5:cjc129_2038"
    INDEX 01 01:57:64
  TRACK 69 AUDIO
    TITLE "0:"
    INDEX 01 01:59:40
  TRACK 70 AUDIO
    TITLE "4:cjc129_2039"
    INDEX 01 02:00:31
  TRACK 71 AUDIO
    TITLE "0:"
    INDEX 01 02:02:05
  TRACK 72 AUDIO
    TITLE "6:cjc129_2040"
    INDEX 01 02:02:38
  TRACK 73 AUDIO
    TITLE "0:"
    INDEX 01 02:06:34
